<svg width="154" height="61" viewBox="0 0 154 61" fill="none" xmlns="http://www.w3.org/2000/svg">
<path d="M53.6848 3.91856H100.318V16.4783C101.857 15.9335 103.205 15.5364 104.253 15.2607V0H49.7539V15.2607C50.8017 15.5364 52.1461 15.9335 53.6881 16.4783V3.91856H53.6848Z" fill="url(#paint0_linear_249_944)"/>
<path d="M100.318 47.0129L97.1421 41.8767L89.6328 29.7404C90.7531 28.7952 91.9492 27.8927 93.2474 27.0459C100.384 22.389 107.669 21.0598 107.742 21.0467L106.987 16.7901C106.661 16.8459 98.8686 18.2505 90.997 23.3473C89.6987 24.1874 88.4763 25.0801 87.3264 26.022L76.9967 9.32053L66.6669 26.022C65.5203 25.0801 64.2979 24.1907 62.9996 23.3473C55.128 18.2538 47.3387 16.8491 47.0125 16.7901L46.2579 21.0467C46.3304 21.0598 53.6156 22.3922 60.7525 27.0459C62.0474 27.8927 63.2468 28.7919 64.3671 29.7404L56.8578 41.8767L53.6815 47.0129V25.6413C52.2383 25.0145 50.8972 24.5255 49.7473 24.1513V54.2822H104.246V24.1513C103.099 24.5255 101.758 25.0145 100.312 25.6413V47.0129H100.318ZM76.9999 17.558L84.0874 29.0151C80.9242 32.3199 78.5519 36.1039 76.9999 40.2949C75.448 36.1039 73.0756 32.3199 69.9125 29.0151L76.9999 17.558ZM56.7063 50.3669L61.9584 41.8767L67.55 32.8352C69.952 35.5296 71.7643 38.5456 72.9801 41.8767C73.9422 44.5121 74.5254 47.3443 74.7363 50.3669H56.7063ZM79.2603 50.3669C79.4712 47.3443 80.0544 44.5121 81.0165 41.8767C82.2324 38.5489 84.0446 35.5296 86.4466 32.8352L92.0382 41.8767L97.2903 50.3669H79.2603Z" fill="url(#paint1_linear_249_944)"/>
<defs>
<linearGradient id="paint0_linear_249_944" x1="77" y1="14.9457" x2="77" y2="-1.91661" gradientUnits="userSpaceOnUse">
<stop stop-color="#8E03FC"/>
<stop offset="1" stop-color="#9970E8"/>
</linearGradient>
<linearGradient id="paint1_linear_249_944" x1="76.9999" y1="50.1471" x2="76.9999" y2="17.4727" gradientUnits="userSpaceOnUse">
<stop stop-color="#ECAD00"/>
<stop offset="0.05" stop-color="#ECAD00"/>
<stop offset="0.4" stop-color="#F0EA4C"/>
<stop offset="0.5" stop-color="#F0EA4C"/>
<stop offset="0.6" stop-color="#F0EA4C"/>
<stop offset="0.95" stop-color="#ECAD00"/>
<stop offset="1" stop-color="#ECAD00"/>
</linearGradient>
</defs>
</svg>
