<svg width="229" height="132" viewBox="0 0 229 132" fill="none" xmlns="http://www.w3.org/2000/svg">
<g clip-path="url(#clip0_249_667)">
<path d="M11.2202 99.8886H18.653L29.7752 131.225H22.6511L20.5785 124.783H9.00066L6.86931 131.225H0L11.2202 99.8886ZM10.789 119.381H18.8392L14.8655 107.049L10.7841 119.381H10.789Z" fill="url(#paint0_linear_249_667)"/>
<path d="M53.3181 99.8886H60.1433L49.4278 131.225H43.2199L32.5876 99.8886H39.604L46.4292 123.679L53.3181 99.8886Z" fill="url(#paint1_linear_249_667)"/>
<path d="M91.6725 105.437H75.0382V112.089H90.3104V117.53H75.0382V125.589H92.4417V131.225H68.6196V99.8886H91.6725V105.437Z" fill="url(#paint2_linear_249_667)"/>
<path d="M101.82 99.8886H108.708L121.188 121.74V99.8886H127.308V131.225H120.742L107.944 108.993V131.225H101.824V99.8886H101.82Z" fill="url(#paint3_linear_249_667)"/>
<path d="M160.679 99.8886V105.437H151.272V131.225H144.662V105.437H135.216V99.8886H160.679Z" fill="url(#paint4_linear_249_667)"/>
<path d="M192.13 105.437H175.496V112.089H190.768V117.53H175.496V125.589H192.899V131.225H169.077V99.8886H192.13V105.437Z" fill="url(#paint5_linear_249_667)"/>
<path d="M220.808 100.572C223.013 101.295 224.801 102.619 226.163 104.548C227.261 106.106 228.005 107.796 228.402 109.608C228.799 111.42 229 113.154 229 114.795C229 118.961 228.162 122.492 226.482 125.383C224.203 129.281 220.69 131.23 215.937 131.23H202.385V99.8935H215.937C217.888 99.9228 219.509 100.147 220.803 100.572H220.808ZM208.764 105.334V125.784H214.83C217.937 125.784 220.097 124.26 221.322 121.212C221.993 119.542 222.327 117.549 222.327 115.239C222.327 112.05 221.827 109.603 220.822 107.894C219.818 106.184 217.819 105.329 214.83 105.329H208.764V105.334Z" fill="url(#paint6_linear_249_667)"/>
<path d="M79.8299 5.83156H149.175V24.5228C151.463 23.7121 153.467 23.1211 155.025 22.7108V0H73.9846V22.7108C75.5427 23.1211 77.5418 23.7121 79.8348 24.5228V5.83156H79.8299Z" fill="url(#paint7_linear_249_667)"/>
<path d="M149.175 69.964L144.451 62.3205L133.285 44.2593C134.951 42.8527 136.73 41.5096 138.66 40.2495C149.273 33.319 160.106 31.341 160.214 31.3214L159.092 24.9868C158.607 25.0698 147.019 27.1602 135.314 34.7451C133.383 35.9955 131.565 37.3239 129.855 38.7256L114.495 13.8707L99.1346 38.7256C97.4295 37.3239 95.6117 36.0003 93.6813 34.7451C81.976 27.1651 70.3932 25.0747 69.9082 24.9868L68.7861 31.3214C68.8939 31.341 79.7271 33.3239 90.3397 40.2495C92.2653 41.5096 94.0487 42.8478 95.7146 44.2593L84.5483 62.3205L79.8251 69.964V38.1591C77.679 37.2262 75.6848 36.4985 73.9749 35.9417V80.7822H155.015V35.9417C153.31 36.4985 151.316 37.2262 149.165 38.1591V69.964H149.175ZM114.5 26.1297L125.039 43.1799C120.335 48.0981 116.808 53.7294 114.5 59.9664C112.192 53.7294 108.664 48.0981 103.961 43.1799L114.5 26.1297ZM84.3229 74.9555L92.133 62.3205L100.448 48.8649C104.02 52.8747 106.714 57.3632 108.522 62.3205C109.953 66.2424 110.82 70.4573 111.134 74.9555H84.3229ZM117.861 74.9555C118.175 70.4573 119.042 66.2424 120.473 62.3205C122.281 57.3681 124.975 52.8747 128.547 48.8649L136.862 62.3205L144.672 74.9555H117.861Z" fill="url(#paint8_linear_249_667)"/>
</g>
<defs>
<linearGradient id="paint0_linear_249_667" x1="14.89" y1="131.938" x2="14.89" y2="100.602" gradientUnits="userSpaceOnUse">
<stop stop-color="#8E03FC"/>
<stop offset="1" stop-color="#9970E8"/>
</linearGradient>
<linearGradient id="paint1_linear_249_667" x1="46.3655" y1="131.938" x2="46.3655" y2="100.602" gradientUnits="userSpaceOnUse">
<stop stop-color="#8E03FC"/>
<stop offset="1" stop-color="#9970E8"/>
</linearGradient>
<linearGradient id="paint2_linear_249_667" x1="80.5258" y1="131.938" x2="80.5258" y2="100.602" gradientUnits="userSpaceOnUse">
<stop stop-color="#8E03FC"/>
<stop offset="1" stop-color="#9970E8"/>
</linearGradient>
<linearGradient id="paint3_linear_249_667" x1="114.559" y1="131.938" x2="114.559" y2="100.602" gradientUnits="userSpaceOnUse">
<stop stop-color="#8E03FC"/>
<stop offset="1" stop-color="#9970E8"/>
</linearGradient>
<linearGradient id="paint4_linear_249_667" x1="147.945" y1="131.938" x2="147.945" y2="100.602" gradientUnits="userSpaceOnUse">
<stop stop-color="#8E03FC"/>
<stop offset="1" stop-color="#9970E8"/>
</linearGradient>
<linearGradient id="paint5_linear_249_667" x1="180.988" y1="131.938" x2="180.988" y2="100.602" gradientUnits="userSpaceOnUse">
<stop stop-color="#8E03FC"/>
<stop offset="1" stop-color="#9970E8"/>
</linearGradient>
<linearGradient id="paint6_linear_249_667" x1="215.692" y1="131.938" x2="215.692" y2="100.602" gradientUnits="userSpaceOnUse">
<stop stop-color="#8E03FC"/>
<stop offset="1" stop-color="#9970E8"/>
</linearGradient>
<linearGradient id="paint7_linear_249_667" x1="114.5" y1="22.242" x2="114.5" y2="-2.85229" gradientUnits="userSpaceOnUse">
<stop stop-color="#8E03FC"/>
<stop offset="1" stop-color="#9970E8"/>
</linearGradient>
<linearGradient id="paint8_linear_249_667" x1="114.5" y1="74.6283" x2="114.5" y2="26.0027" gradientUnits="userSpaceOnUse">
<stop stop-color="#ECAD00"/>
<stop offset="0.05" stop-color="#ECAD00"/>
<stop offset="0.4" stop-color="#F0EA4C"/>
<stop offset="0.5" stop-color="#F0EA4C"/>
<stop offset="0.6" stop-color="#F0EA4C"/>
<stop offset="0.95" stop-color="#ECAD00"/>
<stop offset="1" stop-color="#ECAD00"/>
</linearGradient>
<clipPath id="clip0_249_667">
<rect width="229" height="131.225" fill="white"/>
</clipPath>
</defs>
</svg>
