<svg width="430" height="366" viewBox="0 0 430 366" fill="none" xmlns="http://www.w3.org/2000/svg">
<path d="M407.906 310.179L381.765 267.912L319.966 168.039C329.186 160.261 339.029 152.834 349.713 145.866C408.448 107.543 468.403 96.6051 469 96.4971L462.79 61.4686C460.106 61.9277 395.974 73.4869 331.192 115.429C320.508 122.343 310.448 129.689 300.984 137.44L215.973 0L130.962 137.44C121.525 129.689 111.465 122.37 100.781 115.429C35.9985 73.5139 -28.1057 61.9547 -30.7903 61.4686L-37 96.4971C-36.4034 96.6051 23.5519 107.57 82.2869 145.866C92.9438 152.834 102.814 160.234 112.034 168.039L50.2348 267.912L24.0942 310.179V134.307C12.217 129.149 1.18048 125.125 -8.28329 122.046V370H440.229V122.046C430.792 125.125 419.756 129.149 407.852 134.307V310.179H407.906ZM216 67.7883L274.328 162.071C248.296 189.267 228.772 220.407 216 254.895C203.228 220.407 183.704 189.267 157.672 162.071L216 67.7883ZM48.9875 337.78L92.2117 267.912L138.229 193.507C157.997 215.68 172.911 240.5 182.917 267.912C190.836 289.599 195.635 312.907 197.371 337.78H48.9875ZM234.602 337.78C236.338 312.907 241.137 289.599 249.055 267.912C259.062 240.527 273.976 215.68 293.744 193.507L339.761 267.912L382.985 337.78H234.602Z" fill="white" fill-opacity="0.06"/>
</svg>
