<svg width="19" height="19" viewBox="0 0 19 19" fill="none" xmlns="http://www.w3.org/2000/svg">
<g clip-path="url(#clip0_249_920)">
<path d="M6.93689 1.36262C5.15901 1.97938 3.62576 3.15002 2.56237 4.70258C1.49897 6.25515 0.961478 8.1078 1.02883 9.98842C1.09619 11.869 1.76484 13.6785 2.93658 15.151C4.10831 16.6235 5.72137 17.6815 7.53882 18.1695C9.01227 18.5497 10.556 18.5664 12.0373 18.2181C13.3793 17.9167 14.6199 17.2719 15.6378 16.347C16.6972 15.3549 17.4662 14.0928 17.862 12.6965C18.2923 11.178 18.3689 9.58106 18.0858 8.02836H9.81171V11.4606H14.6035C14.5078 12.0081 14.3025 12.5305 14.0001 12.9968C13.6977 13.463 13.3044 13.8635 12.8436 14.1742C12.2585 14.5613 11.5989 14.8217 10.9071 14.9388C10.2134 15.0678 9.50178 15.0678 8.80802 14.9388C8.10487 14.7934 7.4397 14.5032 6.85487 14.0866C5.91534 13.4216 5.20988 12.4767 4.83916 11.387C4.46217 10.2768 4.46217 9.0732 4.83916 7.96303C5.10305 7.18485 5.53928 6.47632 6.11531 5.89032C6.77451 5.20741 7.60907 4.71926 8.52743 4.47943C9.44579 4.2396 10.4125 4.25736 11.3214 4.53076C12.0314 4.74872 12.6808 5.12955 13.2176 5.64288C13.7579 5.10535 14.2972 4.56644 14.8357 4.02614C15.1137 3.7356 15.4168 3.45896 15.6906 3.16147C14.8712 2.39894 13.9094 1.8056 12.8603 1.41545C10.9498 0.721749 8.85943 0.703107 6.93689 1.36262Z" fill="white"/>
<path d="M6.93694 1.36262C8.85932 0.702663 10.9497 0.720815 12.8603 1.41406C13.9097 1.80686 14.871 2.40306 15.6893 3.16842C15.4113 3.46591 15.1179 3.74394 14.8344 4.03309C14.295 4.57154 13.7561 5.10814 13.2176 5.64288C12.6808 5.12955 12.0315 4.74873 11.3215 4.53076C10.4128 4.25641 9.44618 4.23762 8.52757 4.47647C7.60897 4.71532 6.7739 5.20257 6.11398 5.88477C5.53795 6.47076 5.10171 7.17929 4.83782 7.95747L1.95605 5.72629C2.98755 3.68078 4.77353 2.11612 6.93694 1.36262Z" fill="#E33629"/>
<path d="M1.19142 7.93662C1.34631 7.16897 1.60346 6.42557 1.956 5.72629L4.83777 7.96303C4.46078 9.07321 4.46078 10.2768 4.83777 11.387C3.87764 12.1284 2.91705 12.8735 1.956 13.6223C1.07346 11.8656 0.804307 9.86406 1.19142 7.93662Z" fill="#F8BD00"/>
<path d="M9.81178 8.02698H18.0859C18.3689 9.57968 18.2924 11.1766 17.8621 12.6951C17.4662 14.0915 16.6973 15.3535 15.6379 16.3456C14.7079 15.6199 13.7737 14.8999 12.8437 14.1742C13.3048 13.8632 13.6983 13.4623 14.0007 12.9955C14.3031 12.5288 14.5082 12.0058 14.6036 11.4579H9.81178C9.81038 10.3152 9.81178 9.17107 9.81178 8.02698Z" fill="#587DBD"/>
<path d="M1.95459 13.6223C2.91564 12.8809 3.87623 12.1358 4.83636 11.387C5.20782 12.4771 5.91428 13.422 6.85485 14.0866C7.4415 14.5013 8.10811 14.7891 8.81217 14.9318C9.50593 15.0608 10.2175 15.0608 10.9113 14.9318C11.603 14.8147 12.2626 14.5543 12.8478 14.1673C13.7778 14.8929 14.7119 15.613 15.642 16.3387C14.6242 17.2641 13.3836 17.9094 12.0415 18.2112C10.5602 18.5594 9.01642 18.5427 7.54297 18.1625C6.37762 17.8514 5.2891 17.3029 4.34564 16.5514C3.34704 15.7585 2.53144 14.7594 1.95459 13.6223Z" fill="#319F43"/>
</g>
<defs>
<clipPath id="clip0_249_920">
<rect width="17.7939" height="17.7939" fill="white" transform="translate(0.738281 0.777374)"/>
</clipPath>
</defs>
</svg>
