<svg width="22" height="23" viewBox="0 0 22 23" fill="none" xmlns="http://www.w3.org/2000/svg">
<g clip-path="url(#clip0_207_4305)">
<path d="M12.1704 15.7098C12.1466 15.7576 12.105 15.7689 12.071 15.7887C11.8625 15.9106 11.6518 16.029 11.4439 16.1522C11.3851 16.187 11.339 16.1863 11.2778 16.151C10.095 15.4694 8.91075 14.7901 7.72653 14.111C6.95093 13.6664 6.17485 13.2228 5.39876 12.7789C5.31996 12.7339 5.30236 12.6737 5.34596 12.5985C5.76888 11.8698 6.1918 11.1409 6.61593 10.413C6.64137 10.3694 6.65566 10.3158 6.70531 10.2893C6.78379 10.3418 12.0773 15.5924 12.1699 15.71L12.1704 15.7098Z" fill="#9DB2CE"/>
<path d="M10.3824 16.7277C10.3649 16.7818 10.3257 16.7907 10.2957 16.808C9.71603 17.141 9.13493 17.4713 8.55699 17.8066C8.47996 17.8514 8.4257 17.8475 8.34965 17.8037C6.93288 16.9882 5.51443 16.1761 4.09621 15.363C4.03687 15.329 3.97922 15.2915 3.91745 15.2622C3.84599 15.2282 3.83558 15.1885 3.87748 15.1209C3.95984 14.9879 4.03541 14.8508 4.11413 14.7156C4.32632 14.3516 4.53802 13.9874 4.75118 13.6241C4.81028 13.5236 4.81198 13.5257 4.91638 13.5857C5.54155 13.9443 6.16697 14.3023 6.79215 14.6607C7.92358 15.3096 9.055 15.9586 10.1857 16.6081C10.2509 16.6457 10.3216 16.6757 10.3824 16.7277Z" fill="#9DB2CE"/>
<path d="M17.118 6.99589C14.7905 8.77031 12.4814 10.5305 10.1725 12.2908C10.1641 12.2831 10.1553 12.2754 10.1469 12.2674C10.5775 11.692 11.0266 11.1305 11.4638 10.5599C11.9061 9.98277 12.3521 9.40853 12.7963 8.83334C13.2405 8.2579 13.6845 7.68247 14.1293 7.10727C14.573 6.53328 15.0172 5.96001 15.4726 5.37158C16.0334 5.90925 16.5479 6.46688 17.118 6.99565V6.99589Z" fill="#9DB2CE"/>
<path d="M7.47521 18.4157C7.40327 18.4761 7.32285 18.5136 7.24679 18.5572C6.71947 18.8605 6.19046 19.1608 5.66459 19.4665C5.58127 19.5149 5.51926 19.517 5.43375 19.4672C4.86332 19.1343 4.2861 18.8122 3.7176 18.4759C3.5604 18.3828 3.40053 18.2921 3.24502 18.1951C2.99747 18.0409 2.72933 17.9194 2.47815 17.7696C2.37714 17.7092 2.37496 17.7094 2.436 17.6043C2.7177 17.1181 3.00014 16.6322 3.28305 16.1464C3.35402 16.0245 3.35596 16.0252 3.48337 16.0981C3.81207 16.286 4.14634 16.4652 4.46728 16.6656C4.65718 16.7842 4.85266 16.8965 5.04644 17.0041C5.36278 17.1799 5.67622 17.3611 5.99232 17.5376C6.45303 17.7948 6.90913 18.0606 7.36621 18.3243C7.40327 18.3457 7.44977 18.3577 7.47521 18.4157Z" fill="#9DB2CE"/>
<path d="M19.2252 3.27309C19.2499 3.31303 19.2198 3.34791 19.2089 3.38448C19.1273 3.6568 19.014 3.91781 18.9159 4.18436C18.8829 4.27361 18.8931 4.37561 18.8296 4.45668C18.8066 4.48579 18.8299 4.51105 18.8517 4.53944C19.0956 4.85626 19.3366 5.1755 19.5781 5.49401C19.5878 5.50676 19.596 5.52047 19.589 5.54188C19.5548 5.57628 19.5078 5.56064 19.4659 5.56016C19.1188 5.5568 18.7717 5.55535 18.4251 5.54332C18.3224 5.53971 18.2635 5.5758 18.2083 5.65615C18.0194 5.93064 17.8244 6.20103 17.6306 6.47239C17.603 6.51112 17.5797 6.55418 17.5422 6.58257C17.5214 6.58498 17.5064 6.57704 17.5015 6.56092C17.4545 6.39998 17.3828 6.24578 17.3608 6.07762C17.3586 6.06174 17.3562 6.04563 17.3511 6.03071C17.2835 5.83513 17.2113 5.64075 17.1493 5.44325C17.1261 5.36939 17.0779 5.34534 17.0132 5.32585C16.6775 5.22385 16.3425 5.12017 16.0075 5.01648C15.9668 5.00397 15.9191 5.00325 15.8919 4.96091C15.9036 4.90991 15.9503 4.89524 15.9847 4.8707C16.2737 4.66598 16.5629 4.46125 16.8548 4.26038C16.9144 4.21924 16.9364 4.17739 16.9347 4.10305C16.9265 3.73041 16.9265 3.35753 16.9238 2.9849C16.9238 2.96132 16.9194 2.93654 16.9381 2.91441C16.9858 2.89949 17.0098 2.94111 17.0396 2.963C17.3184 3.16821 17.5986 3.37173 17.8719 3.58391C17.9596 3.65199 18.0344 3.65704 18.1354 3.62119C18.4694 3.50211 18.8066 3.39169 19.1431 3.27863C19.1685 3.27021 19.1944 3.2512 19.2252 3.27309Z" fill="#9DB2CE"/>
<path d="M4.58054 20.0826C4.42504 20.1731 4.28334 20.2563 4.14067 20.3381C3.67633 20.6044 3.21077 20.8688 2.74788 21.1375C2.67255 21.1813 2.61393 21.1835 2.53763 21.139C2.12053 20.8955 1.70003 20.6576 1.28147 20.4168C1.18821 20.3631 1.10246 20.2984 1.00218 20.2547C0.922491 20.22 0.931212 20.2015 0.977234 20.1291C1.04917 20.016 1.11167 19.8969 1.17634 19.7795C1.22624 19.6888 1.2834 19.6018 1.3333 19.512C1.41033 19.3735 1.51473 19.2505 1.57165 19.1011C1.58013 19.079 1.59006 19.0571 1.60144 19.0359C1.67677 18.8957 1.7802 18.7725 1.84657 18.6255C1.89332 18.5221 1.90156 18.532 2.00063 18.5801C2.12464 18.6404 2.22783 18.7307 2.34531 18.7997C2.40078 18.8322 2.45407 18.8685 2.51995 18.8796C2.53909 18.8827 2.55725 18.8945 2.57445 18.9046C3.19115 19.2734 3.82142 19.6193 4.44272 19.9799C4.4868 20.0054 4.53719 20.0232 4.58054 20.0826Z" fill="#9DB2CE"/>
<path d="M9.0917 11.2404C9.16607 10.9611 9.2351 10.698 9.30607 10.4353C9.54587 9.5454 9.7864 8.65578 10.0267 7.76617C10.1979 7.13155 10.3694 6.49718 10.5407 5.8628C10.546 5.84356 10.5533 5.82455 10.5576 5.80506C10.5744 5.73049 10.6143 5.72231 10.6817 5.7507C10.9341 5.85751 11.1881 5.95999 11.4415 6.06416C11.5905 6.1255 11.7397 6.18684 11.8884 6.24915C12.002 6.29678 12.0035 6.30039 11.9441 6.40287C11.7041 6.81569 11.4631 7.22802 11.223 7.64107C10.725 8.49797 10.2275 9.35535 9.72972 10.2125C9.54442 10.5317 9.35912 10.851 9.17358 11.1702C9.15783 11.1971 9.14645 11.2291 9.09146 11.2409L9.0917 11.2404Z" fill="#9DB2CE"/>
<path d="M11.2073 13.3225C11.2114 13.2754 11.2487 13.2687 11.2746 13.254C12.5248 12.5373 13.7756 11.8216 15.026 11.1055C15.3367 10.9275 15.647 10.7482 15.958 10.5702C16.068 10.5074 16.0694 10.5079 16.1193 10.627C16.2807 11.0114 16.441 11.3961 16.6016 11.7805C16.6445 11.8835 16.6428 11.8895 16.5323 11.9191C15.9757 12.0682 15.4191 12.2169 14.8622 12.3651C13.9703 12.6025 13.0785 12.8392 12.1869 13.0767C11.9025 13.1525 11.6186 13.2297 11.3342 13.3045C11.294 13.3151 11.2526 13.3331 11.2075 13.3225H11.2073Z" fill="#9DB2CE"/>
<path d="M12.5274 5.29346C12.462 5.28576 12.4448 5.23981 12.4174 5.20782C12.2663 5.03052 12.1134 4.85418 11.9691 4.67183C11.9121 4.59991 11.853 4.57537 11.7627 4.58691C11.5149 4.61843 11.2659 4.64176 11.0176 4.66823C10.9902 4.67111 10.9619 4.68025 10.9292 4.65042C11.005 4.56695 11.0428 4.4599 11.1024 4.36439C11.1705 4.25493 11.2237 4.1296 11.3037 4.02736C11.4141 3.8859 11.4204 3.75961 11.334 3.60324C11.2451 3.44254 11.183 3.26692 11.1099 3.09757C11.0912 3.0545 11.0661 3.01289 11.0697 2.96453C11.113 2.93278 11.1511 2.95924 11.1879 2.96838C11.4267 3.0266 11.6658 3.08409 11.9032 3.14808C11.9746 3.16733 12.0245 3.15338 12.0781 3.10575C12.2612 2.94264 12.4472 2.7829 12.6335 2.62293C12.6621 2.59839 12.6827 2.55605 12.7335 2.56712C12.766 2.59478 12.7556 2.63327 12.7577 2.66767C12.7745 2.91955 12.7926 3.17118 12.8042 3.42329C12.8074 3.48969 12.8386 3.52337 12.891 3.55392C13.1032 3.67781 13.3139 3.80363 13.5249 3.92945C13.5583 3.94941 13.599 3.96144 13.6181 3.9968C13.6135 4.0442 13.5752 4.04444 13.5474 4.0555C13.3119 4.15005 13.0765 4.24531 12.8399 4.33721C12.7745 4.36247 12.7364 4.39639 12.7209 4.47024C12.6674 4.725 12.6054 4.97784 12.5463 5.23139C12.5419 5.2504 12.5349 5.26892 12.5274 5.29346Z" fill="#9DB2CE"/>
<path d="M19.3929 11.1783C19.2713 11.1501 19.1611 11.0919 19.05 11.0395C18.9552 10.9947 18.8567 10.9587 18.7639 10.9113C18.6973 10.8771 18.6445 10.887 18.5849 10.9255C18.4192 11.0323 18.2511 11.135 18.084 11.2394C18.0605 11.2541 18.0399 11.2757 18.0028 11.2659C17.9781 11.223 17.9931 11.1754 17.9973 11.1295C18.0142 10.9461 18.0307 10.7628 18.053 10.58C18.061 10.5143 18.0336 10.4763 17.9866 10.4381C17.8275 10.3091 17.6705 10.1771 17.5123 10.0467C17.4968 10.0339 17.4784 10.0245 17.4753 9.99879C17.4949 9.94948 17.545 9.95525 17.5857 9.94587C17.7584 9.90642 17.9309 9.86504 18.105 9.83184C18.1942 9.815 18.2441 9.77266 18.2753 9.68702C18.3412 9.50659 18.4178 9.32978 18.4897 9.15152C18.4984 9.13011 18.4994 9.10292 18.5287 9.09595C18.5653 9.09595 18.5716 9.12698 18.5854 9.15007C18.6864 9.31847 18.7901 9.48543 18.8872 9.65623C18.9255 9.72335 18.9724 9.75077 19.0504 9.75414C19.2435 9.76208 19.4363 9.77916 19.6291 9.79287C19.657 9.79479 19.6856 9.79383 19.709 9.80851C19.7287 9.84483 19.7006 9.86167 19.6829 9.88164C19.5531 10.0293 19.4259 10.1797 19.291 10.3226C19.2338 10.3832 19.22 10.4393 19.2447 10.5167C19.3067 10.7111 19.3365 10.9144 19.4082 11.1064C19.4152 11.1254 19.4174 11.1453 19.3925 11.1781L19.3929 11.1783Z" fill="#9DB2CE"/>
<path d="M16.4715 14.9813C16.3908 14.9625 16.3175 14.9238 16.2436 14.8889C16.1806 14.8591 16.1152 14.8352 16.0534 14.8037C16.0091 14.7811 15.9742 14.7876 15.9345 14.8131C15.8245 14.8841 15.7126 14.9524 15.6017 15.0217C15.5862 15.0313 15.5724 15.0457 15.5477 15.0392C15.5312 15.0109 15.5411 14.9791 15.544 14.9486C15.5554 14.8268 15.5663 14.7049 15.5811 14.5834C15.5864 14.5396 15.5683 14.5143 15.537 14.4891C15.4312 14.4034 15.327 14.3156 15.2219 14.229C15.2117 14.2206 15.1994 14.2143 15.1972 14.1973C15.2103 14.1645 15.2437 14.1684 15.2706 14.1621C15.3854 14.1359 15.5 14.1083 15.6157 14.0864C15.6748 14.0751 15.7083 14.0469 15.7289 13.9901C15.7727 13.8703 15.8233 13.7527 15.8713 13.6343C15.8771 13.6201 15.8778 13.6021 15.8972 13.5973C15.9217 13.5973 15.9258 13.618 15.935 13.6334C16.0021 13.7452 16.0711 13.8561 16.1355 13.9697C16.161 14.0142 16.1922 14.0325 16.2441 14.0346C16.3724 14.0399 16.5006 14.0512 16.6287 14.0604C16.6471 14.0616 16.6663 14.0609 16.6818 14.0707C16.6948 14.095 16.6759 14.1061 16.6643 14.1193C16.5781 14.2175 16.4936 14.3173 16.4039 14.4123C16.3659 14.4525 16.3567 14.4898 16.3732 14.5413C16.4143 14.6705 16.4342 14.8057 16.4819 14.9332C16.4868 14.9459 16.488 14.9589 16.4715 14.9808V14.9813Z" fill="#9DB2CE"/>
<path d="M8.31497 7.76074C8.15583 7.64959 7.99693 7.54759 7.84869 7.43164C7.75567 7.35899 7.67405 7.34239 7.56359 7.39195C7.41705 7.45762 7.26227 7.50525 7.11063 7.55986C7.08108 7.57045 7.05274 7.59017 7.01932 7.58007C6.98734 7.55577 7.00599 7.52883 7.01399 7.50333C7.0697 7.32339 7.12347 7.14296 7.1833 6.96446C7.20607 6.89662 7.19929 6.8449 7.1523 6.7886C7.03385 6.64691 6.92097 6.50041 6.80665 6.35559C6.78993 6.33442 6.76377 6.31758 6.76789 6.28366C6.78945 6.25046 6.82457 6.2608 6.85509 6.26008C7.04039 6.25503 7.22593 6.24565 7.41123 6.24901C7.49311 6.25046 7.53549 6.2163 7.57546 6.15423C7.66872 6.00893 7.76609 5.86651 7.86322 5.72386C7.8826 5.69547 7.89229 5.65578 7.94364 5.64856C7.97997 5.68344 7.98821 5.73589 8.00468 5.78328C8.05748 5.93459 8.11174 6.08567 8.15873 6.23891C8.18126 6.31276 8.22341 6.35053 8.29777 6.36978C8.47726 6.41597 8.65505 6.46841 8.83357 6.51869C8.85634 6.52518 8.88201 6.52567 8.89824 6.55093C8.90841 6.59158 8.87135 6.60289 8.84762 6.62093C8.70277 6.72943 8.55913 6.83985 8.41065 6.94353C8.34331 6.99068 8.31884 7.04457 8.32441 7.1254C8.33556 7.28513 8.33943 7.44535 8.34403 7.60557C8.34549 7.65176 8.36172 7.70108 8.31497 7.76122V7.76074Z" fill="#9DB2CE"/>
<path d="M14.6385 1.15514C14.6186 0.778898 14.9906 0.473378 15.3237 0.472416C15.7035 0.471213 16.0123 0.783468 16.0097 1.16573C16.007 1.54871 15.6994 1.84701 15.3121 1.84268C14.9323 1.83835 14.636 1.53596 14.6385 1.15514Z" fill="#9DB2CE"/>
<path d="M0.450748 21.026C0.865918 21.2639 1.26534 21.4929 1.65896 21.7188C1.65121 21.7746 1.61729 21.7843 1.59041 21.7997C1.32881 21.9503 1.06745 22.1006 0.805363 22.25C0.446388 22.4545 0.0903203 22.1793 0.0583468 21.8776C0.0510801 21.8078 0.0549557 21.7388 0.0828114 21.6775C0.183818 21.4549 0.317041 21.2504 0.450748 21.026Z" fill="#9DB2CE"/>
<path d="M8.98563 3.97798C8.68673 3.97798 8.44523 3.7403 8.44353 3.44488C8.44208 3.14465 8.686 2.89903 8.98684 2.89783C9.27702 2.89663 9.53087 3.14658 9.53136 3.43381C9.53184 3.73452 9.28768 3.97774 8.98563 3.97798Z" fill="#9DB2CE"/>
<path d="M20.816 7.13905C20.8179 6.84026 21.067 6.59609 21.3649 6.6009C21.6609 6.60571 21.9031 6.85446 21.9036 7.15396C21.9041 7.43879 21.65 7.68417 21.3557 7.68345C21.0529 7.68273 20.8143 7.44192 20.8163 7.13905H20.816Z" fill="#9DB2CE"/>
<path d="M18.711 13.4363C18.7127 13.247 18.8701 13.0926 19.0598 13.0943C19.2465 13.0959 19.4083 13.2569 19.4093 13.4412C19.41 13.6295 19.2415 13.7924 19.0491 13.7888C18.859 13.7852 18.7093 13.629 18.7112 13.4361L18.711 13.4363Z" fill="#9DB2CE"/>
</g>
<defs>
<clipPath id="clip0_207_4305">
<rect width="21.8483" height="21.8483" fill="white" transform="translate(0.0551147 0.472412)"/>
</clipPath>
</defs>
</svg>
