<svg width="20" height="22" viewBox="0 0 20 22" fill="none" xmlns="http://www.w3.org/2000/svg">
<path d="M0 18.8138V7.88966C0 7.50529 0.0861791 7.14115 0.258538 6.79724C0.430896 6.45333 0.668396 6.17011 0.971035 5.94759L8.25379 0.485517C8.67862 0.161839 9.16414 0 9.71034 0C10.2566 0 10.7421 0.161839 11.1669 0.485517L18.4497 5.94759C18.7531 6.17011 18.991 6.45333 19.1634 6.79724C19.3357 7.14115 19.4215 7.50529 19.4207 7.88966V18.8138C19.4207 19.4814 19.1828 20.0531 18.707 20.5289C18.2312 21.0047 17.6599 21.2422 16.9931 21.2414H13.3517C13.0078 21.2414 12.7197 21.1249 12.4875 20.8918C12.2553 20.6588 12.1387 20.3707 12.1379 20.0276V13.9586C12.1379 13.6147 12.0214 13.3266 11.7884 13.0944C11.5553 12.8622 11.2672 12.7456 10.9241 12.7448H8.49655C8.15264 12.7448 7.86457 12.8614 7.63233 13.0944C7.40009 13.3274 7.28357 13.6155 7.28276 13.9586V20.0276C7.28276 20.3715 7.16623 20.66 6.93319 20.893C6.70014 21.1261 6.41206 21.2422 6.06897 21.2414H2.42759C1.76 21.2414 1.18871 21.0039 0.71371 20.5289C0.238712 20.0539 0.000809195 19.4822 0 18.8138Z" fill="#9DB2CE"/>
</svg>
