<svg width="20" height="19" viewBox="0 0 20 19" fill="none" xmlns="http://www.w3.org/2000/svg">
<path d="M5.8375 13.4125L12.3125 11.5625L14.1625 5.0875L7.6875 6.9375L5.8375 13.4125ZM10 10.6375C9.61458 10.6375 9.28713 10.5028 9.01765 10.2333C8.74817 9.96379 8.61312 9.63603 8.6125 9.25C8.61188 8.86396 8.74693 8.53651 9.01765 8.26765C9.28837 7.99878 9.61582 7.86373 10 7.8625C10.3842 7.86126 10.7119 7.99631 10.9833 8.26765C11.2546 8.53898 11.3893 8.86643 11.3875 9.25C11.3856 9.63356 11.2509 9.96132 10.9833 10.2333C10.7156 10.5052 10.3879 10.64 10 10.6375ZM10 18.5C8.72042 18.5 7.51792 18.257 6.3925 17.7711C5.26708 17.2852 4.28813 16.6263 3.45563 15.7944C2.62313 14.9625 1.96422 13.9835 1.4789 12.8575C0.993585 11.7315 0.750618 10.529 0.750001 9.25C0.749385 7.97103 0.992351 6.76853 1.4789 5.6425C1.96545 4.51647 2.62436 3.53751 3.45563 2.70562C4.28689 1.87374 5.26585 1.21483 6.3925 0.7289C7.51915 0.242967 8.72165 0 10 0C11.2783 0 12.4808 0.242967 13.6075 0.7289C14.7341 1.21483 15.7131 1.87374 16.5444 2.70562C17.3756 3.53751 18.0349 4.51647 18.522 5.6425C19.0092 6.76853 19.2518 7.97103 19.25 9.25C19.2481 10.529 19.0052 11.7315 18.5211 12.8575C18.037 13.9835 17.3781 14.9625 16.5444 15.7944C15.7106 16.6263 14.7317 17.2855 13.6075 17.772C12.4833 18.2586 11.2808 18.5012 10 18.5Z" fill="black"/>
</svg>
