<svg width="13" height="16" viewBox="0 0 13 16" fill="none" xmlns="http://www.w3.org/2000/svg">
<path d="M1.625 16C1.17812 16 0.795708 15.8509 0.47775 15.5528C0.159791 15.2546 0.000541667 14.8957 0 14.4762V6.85714C0 6.4381 0.15925 6.07949 0.47775 5.78133C0.79625 5.48317 1.17867 5.33384 1.625 5.33333H2.4375V3.80952C2.4375 2.75556 2.83373 1.85727 3.62619 1.11467C4.41865 0.372064 5.37658 0.000508457 6.5 5.20071e-07C7.62342 -0.000507416 8.58162 0.371048 9.37462 1.11467C10.1676 1.85829 10.5636 2.75657 10.5625 3.80952V5.33333H11.375C11.8219 5.33333 12.2046 5.48267 12.5231 5.78133C12.8416 6.08 13.0005 6.4386 13 6.85714V14.4762C13 14.8952 12.841 15.2541 12.5231 15.5528C12.2051 15.8514 11.8224 16.0005 11.375 16H1.625ZM1.625 14.4762H11.375V6.85714H1.625V14.4762ZM6.5 12.1905C6.94687 12.1905 7.32956 12.0414 7.64806 11.7432C7.96656 11.4451 8.12554 11.0862 8.125 10.6667C8.12446 10.2471 7.96548 9.88851 7.64806 9.59086C7.33065 9.29321 6.94796 9.14387 6.5 9.14286C6.05204 9.14184 5.66962 9.29117 5.35275 9.59086C5.03587 9.89054 4.87662 10.2491 4.875 10.6667C4.87337 11.0842 5.03262 11.443 5.35275 11.7432C5.67287 12.0434 6.05529 12.1925 6.5 12.1905ZM4.0625 5.33333H8.9375V3.80952C8.9375 3.1746 8.70052 2.63492 8.22656 2.19048C7.7526 1.74603 7.17708 1.52381 6.5 1.52381C5.82292 1.52381 5.2474 1.74603 4.77344 2.19048C4.29948 2.63492 4.0625 3.1746 4.0625 3.80952V5.33333Z" fill="white" fill-opacity="0.3"/>
</svg>
