<svg width="24" height="24" viewBox="0 0 24 24" fill="none" xmlns="http://www.w3.org/2000/svg">
<g clip-path="url(#clip0_437_274)">
<path d="M12 2C10.1435 2 8.36301 2.7375 7.05026 4.05025C5.7375 5.36301 5.00001 7.14348 5.00001 9V12.528C5.00015 12.6831 4.9642 12.8362 4.89501 12.975L3.17801 16.408C3.09413 16.5757 3.05453 16.7621 3.06296 16.9494C3.07138 17.1368 3.12756 17.3188 3.22615 17.4783C3.32474 17.6379 3.46248 17.7695 3.62627 17.8608C3.79007 17.9521 3.97448 18 4.16201 18H19.838C20.0255 18 20.2099 17.9521 20.3737 17.8608C20.5375 17.7695 20.6753 17.6379 20.7739 17.4783C20.8725 17.3188 20.9286 17.1368 20.9371 16.9494C20.9455 16.7621 20.9059 16.5757 20.822 16.408L19.106 12.975C19.0365 12.8362 19.0002 12.6832 19 12.528V9C19 7.14348 18.2625 5.36301 16.9498 4.05025C15.637 2.7375 13.8565 2 12 2ZM12 21C11.3794 21.0003 10.7739 20.8081 10.267 20.4499C9.76017 20.0917 9.37689 19.5852 9.17001 19H14.83C14.6231 19.5852 14.2398 20.0917 13.733 20.4499C13.2261 20.8081 12.6207 21.0003 12 21Z" fill="white"/>
<circle cx="17" cy="5.83334" r="4" fill="#FF0000"/>
<path d="M17.023 8.084C16.6497 8.084 16.3347 8.02567 16.078 7.909C15.826 7.79233 15.6323 7.62667 15.497 7.412C15.3663 7.19733 15.301 6.94533 15.301 6.656V6.565H16.036V6.67C16.036 6.93133 16.1177 7.132 16.281 7.272C16.449 7.412 16.6823 7.482 16.981 7.482C17.2703 7.482 17.5013 7.41667 17.674 7.286C17.8513 7.15533 17.94 6.94533 17.94 6.656C17.94 6.446 17.8933 6.285 17.8 6.173C17.7067 6.05633 17.583 5.97467 17.429 5.928C17.275 5.88133 17.1117 5.858 16.939 5.858H16.484V5.256H16.96C17.1187 5.256 17.2633 5.23033 17.394 5.179C17.5293 5.123 17.6367 5.03667 17.716 4.92C17.8 4.79867 17.842 4.64467 17.842 4.458C17.842 4.28533 17.8047 4.14533 17.73 4.038C17.66 3.93067 17.562 3.85133 17.436 3.8C17.31 3.744 17.17 3.716 17.016 3.716C16.8527 3.716 16.7033 3.74633 16.568 3.807C16.4373 3.863 16.3347 3.947 16.26 4.059C16.1853 4.171 16.148 4.31333 16.148 4.486V4.591H15.406V4.444C15.406 4.178 15.4737 3.94467 15.609 3.744C15.749 3.54333 15.938 3.38933 16.176 3.282C16.4187 3.17 16.694 3.114 17.002 3.114C17.3147 3.114 17.59 3.16533 17.828 3.268C18.0707 3.366 18.2573 3.513 18.388 3.709C18.5233 3.90033 18.591 4.136 18.591 4.416C18.591 4.612 18.556 4.78 18.486 4.92C18.416 5.06 18.3203 5.17667 18.199 5.27C18.0823 5.36333 17.9517 5.44267 17.807 5.508V5.536C18.059 5.61067 18.269 5.746 18.437 5.942C18.6097 6.138 18.696 6.39467 18.696 6.712C18.696 6.99667 18.6237 7.24167 18.479 7.447C18.339 7.65233 18.143 7.811 17.891 7.923C17.639 8.03033 17.3497 8.084 17.023 8.084Z" fill="white"/>
</g>
<defs>
<clipPath id="clip0_437_274">
<rect width="24" height="24" fill="white"/>
</clipPath>
</defs>
</svg>
